<svg width="64" height="64" viewBox="0 0 64 64" fill="none" xmlns="http://www.w3.org/2000/svg">
<rect x="0.5" y="0.5" width="63" height="63" fill="white" stroke="black"/>
<path d="M9.85156 35.1328L12.3916 26.2031H13.6221L12.9102 29.6748L10.1768 39H8.95508L9.85156 35.1328ZM7.22363 26.2031L9.24512 34.957L9.85156 39H8.63867L5.53613 26.2031H7.22363ZM16.9092 34.9482L18.8867 26.2031H20.583L17.4893 39H16.2764L16.9092 34.9482ZM13.8066 26.2031L16.2764 35.1328L17.1729 39H15.9512L13.3145 29.6748L12.5938 26.2031H13.8066ZM27.1836 33.9814H23.7646V32.6016H27.1836C27.8457 32.6016 28.3818 32.4961 28.792 32.2852C29.2021 32.0742 29.501 31.7812 29.6885 31.4062C29.8818 31.0312 29.9785 30.6035 29.9785 30.123C29.9785 29.6836 29.8818 29.2705 29.6885 28.8838C29.501 28.4971 29.2021 28.1865 28.792 27.9521C28.3818 27.7119 27.8457 27.5918 27.1836 27.5918H24.1602V39H22.4639V26.2031H27.1836C28.1504 26.2031 28.9678 26.3701 29.6357 26.7041C30.3037 27.0381 30.8105 27.501 31.1562 28.0928C31.502 28.6787 31.6748 29.3496 31.6748 30.1055C31.6748 30.9258 31.502 31.626 31.1562 32.2061C30.8105 32.7861 30.3037 33.2285 29.6357 33.5332C28.9678 33.832 28.1504 33.9814 27.1836 33.9814ZM37.0581 38.332V39H32.8701V38.4155L34.9663 36.082C35.2241 35.7949 35.4233 35.5518 35.564 35.3525C35.7075 35.1504 35.8071 34.9702 35.8628 34.812C35.9214 34.6509 35.9507 34.4868 35.9507 34.3198C35.9507 34.1089 35.9067 33.9185 35.8188 33.7485C35.7339 33.5757 35.6079 33.438 35.4409 33.3354C35.2739 33.2329 35.0718 33.1816 34.8345 33.1816C34.5503 33.1816 34.313 33.2373 34.1226 33.3486C33.9351 33.457 33.7944 33.6094 33.7007 33.8057C33.6069 34.002 33.5601 34.2275 33.5601 34.4824H32.7471C32.7471 34.1221 32.8262 33.7925 32.9844 33.4937C33.1426 33.1948 33.377 32.9575 33.6875 32.7817C33.998 32.603 34.3804 32.5137 34.8345 32.5137C35.2388 32.5137 35.5845 32.5854 35.8716 32.729C36.1587 32.8696 36.3784 33.0688 36.5308 33.3267C36.686 33.5815 36.7637 33.8804 36.7637 34.2231C36.7637 34.4106 36.7314 34.6011 36.667 34.7944C36.6055 34.9849 36.519 35.1753 36.4077 35.3657C36.2993 35.5562 36.1719 35.7437 36.0254 35.9282C35.8818 36.1128 35.728 36.2944 35.564 36.4731L33.8501 38.332H37.0581ZM43.6104 26.2031V39H41.9404V26.2031H43.6104ZM47.7236 26.2031V27.5918H37.8359V26.2031H47.7236ZM51.5732 31.8018H52.7334C53.3018 31.8018 53.7705 31.708 54.1396 31.5205C54.5146 31.3271 54.793 31.0664 54.9746 30.7383C55.1621 30.4043 55.2559 30.0293 55.2559 29.6133C55.2559 29.1211 55.1738 28.708 55.0098 28.374C54.8457 28.04 54.5996 27.7881 54.2715 27.6182C53.9434 27.4482 53.5273 27.3633 53.0234 27.3633C52.5664 27.3633 52.1621 27.4541 51.8105 27.6357C51.4648 27.8115 51.1924 28.0635 50.9932 28.3916C50.7998 28.7197 50.7031 29.1064 50.7031 29.5518H49.0771C49.0771 28.9014 49.2412 28.3096 49.5693 27.7764C49.8975 27.2432 50.3574 26.8184 50.9492 26.502C51.5469 26.1855 52.2383 26.0273 53.0234 26.0273C53.7969 26.0273 54.4736 26.165 55.0537 26.4404C55.6338 26.71 56.085 27.1143 56.4072 27.6533C56.7295 28.1865 56.8906 28.8516 56.8906 29.6484C56.8906 29.9707 56.8145 30.3164 56.6621 30.6855C56.5156 31.0488 56.2842 31.3887 55.9678 31.7051C55.6572 32.0215 55.2529 32.2822 54.7549 32.4873C54.2568 32.6865 53.6592 32.7861 52.9619 32.7861H51.5732V31.8018ZM51.5732 33.1377V32.1621H52.9619C53.7764 32.1621 54.4502 32.2588 54.9834 32.4521C55.5166 32.6455 55.9355 32.9033 56.2402 33.2256C56.5508 33.5479 56.7676 33.9023 56.8906 34.2891C57.0195 34.6699 57.084 35.0508 57.084 35.4316C57.084 36.0293 56.9814 36.5596 56.7764 37.0225C56.5771 37.4854 56.293 37.8779 55.9238 38.2002C55.5605 38.5225 55.1328 38.7656 54.6406 38.9297C54.1484 39.0938 53.6123 39.1758 53.0322 39.1758C52.4756 39.1758 51.9512 39.0967 51.459 38.9385C50.9727 38.7803 50.542 38.5518 50.167 38.2529C49.792 37.9482 49.499 37.5762 49.2881 37.1367C49.0771 36.6914 48.9717 36.1846 48.9717 35.6162H50.5977C50.5977 36.0615 50.6943 36.4512 50.8877 36.7852C51.0869 37.1191 51.3682 37.3799 51.7314 37.5674C52.1006 37.749 52.5342 37.8398 53.0322 37.8398C53.5303 37.8398 53.958 37.7549 54.3154 37.585C54.6787 37.4092 54.957 37.1455 55.1504 36.7939C55.3496 36.4424 55.4492 36 55.4492 35.4668C55.4492 34.9336 55.3379 34.4971 55.1152 34.1572C54.8926 33.8115 54.5762 33.5566 54.166 33.3926C53.7617 33.2227 53.2842 33.1377 52.7334 33.1377H51.5732Z" fill="black"/>
</svg>
